<?xml version="1.0" standalone="no"?>
<!DOCTYPE svg PUBLIC "-//W3C//DTD SVG 20010904//EN"
 "http://www.w3.org/TR/2001/REC-SVG-20010904/DTD/svg10.dtd">
<svg version="1.0" xmlns="http://www.w3.org/2000/svg"
 width="700.000000pt" height="700.000000pt" viewBox="0 0 700.000000 700.000000"
 preserveAspectRatio="xMidYMid meet">
<metadata>
Created by potrace 1.14, written by Peter Selinger 2001-2017
</metadata>
<g transform="translate(0.000000,700.000000) scale(0.100000,-0.100000)"
fill="#000000" stroke="none">
<path d="M4297 6404 c-2 -2 -209 -10 -527 -20 -199 -6 -238 -9 -262 -19 -27
-11 -45 -61 -42 -118 1 -28 5 -140 9 -247 4 -107 8 -208 8 -225 l2 -30 105 1
c92 0 404 10 615 19 39 2 107 3 153 4 l83 1 -7 203 c-3 111 -8 231 -9 267 -2
36 -4 75 -4 87 -2 37 -41 73 -84 77 -20 1 -38 1 -40 0z"/>
<path d="M765 5750 c-44 -7 -64 -22 -73 -55 -6 -23 -9 -545 -3 -576 1 -7 951
-7 952 0 7 30 3 571 -4 587 -19 45 -34 46 -449 48 -216 0 -406 -1 -423 -4z"/>
<path d="M5527 5494 c-1 -1 -24 -5 -52 -8 -106 -14 -121 -17 -155 -22 -19 -3
-51 -8 -70 -10 -37 -4 -174 -24 -200 -29 -8 -1 -40 -6 -70 -10 -275 -35 -275
-35 -267 -140 4 -38 8 -81 11 -95 3 -14 7 -41 10 -60 34 -248 51 -361 55 -368
3 -5 78 1 166 14 88 13 180 25 205 29 25 3 56 7 70 10 14 2 41 6 60 9 19 3 82
12 140 20 58 9 121 17 140 20 174 22 171 20 160 74 -5 20 -11 62 -15 92 -3 30
-8 66 -10 80 -2 14 -7 45 -10 70 -3 25 -8 52 -10 60 -2 8 -7 38 -10 65 -19
177 -35 206 -108 203 -21 -1 -39 -3 -40 -4z"/>
<path d="M4439 5456 c-2 -2 -83 -7 -179 -10 -216 -7 -488 -17 -595 -21 -44 -2
-101 -4 -126 -4 l-45 -1 2 -42 c1 -24 5 -128 9 -233 3 -104 8 -242 10 -305 3
-63 7 -185 10 -270 3 -85 7 -216 10 -290 3 -74 7 -200 10 -280 3 -80 7 -206
10 -280 3 -74 7 -200 10 -280 3 -80 7 -208 10 -285 3 -77 8 -205 10 -285 3
-80 7 -201 10 -270 2 -69 7 -201 10 -295 3 -93 8 -222 10 -285 3 -63 7 -196
11 -295 3 -99 7 -218 9 -265 2 -47 4 -109 4 -138 l1 -54 188 6 c103 4 244 9
315 12 180 7 354 12 410 13 l47 1 -5 142 c-3 79 -7 204 -10 278 -3 74 -7 203
-10 285 -3 83 -7 209 -10 280 -5 147 -13 352 -20 565 -3 80 -7 206 -10 280 -3
74 -7 203 -10 285 -3 83 -7 206 -10 275 -2 69 -7 202 -10 295 -3 94 -8 220
-10 280 -2 61 -7 193 -10 295 -4 102 -8 226 -10 275 -2 50 -6 176 -10 280 -12
353 -12 354 -26 341z"/>
<path d="M2007 5094 c-13 -7 -28 -23 -33 -36 -6 -13 -10 -138 -9 -303 l0 -280
630 -1 c347 0 635 3 640 7 6 5 10 110 9 283 -1 285 -5 315 -43 332 -9 4 -276
8 -593 9 -438 1 -583 -2 -601 -11z"/>
<path d="M5695 4549 c-22 -4 -67 -11 -100 -14 -33 -4 -62 -8 -65 -10 -3 -2
-34 -6 -70 -10 -36 -3 -72 -8 -80 -10 -8 -2 -35 -7 -60 -10 -25 -3 -56 -8 -70
-10 -14 -2 -45 -7 -70 -10 -41 -5 -112 -15 -210 -30 -19 -3 -55 -8 -80 -11
-25 -3 -48 -9 -53 -13 -4 -4 -3 -32 2 -62 6 -29 12 -74 15 -99 4 -25 8 -58 11
-75 2 -16 7 -46 9 -65 4 -31 27 -192 42 -290 17 -117 25 -180 30 -216 3 -23 7
-52 9 -65 4 -20 17 -112 31 -219 2 -19 6 -48 9 -65 3 -16 7 -48 10 -70 3 -22
8 -51 10 -65 3 -14 7 -47 10 -75 3 -27 10 -72 15 -100 5 -27 12 -72 15 -100 4
-27 8 -66 11 -85 2 -19 6 -48 9 -65 3 -16 7 -46 10 -65 6 -39 64 -448 70 -495
5 -40 15 -106 19 -136 6 -36 19 -131 31 -223 3 -21 7 -50 9 -65 4 -23 11 -68
21 -141 3 -21 19 -135 30 -215 2 -11 6 -38 9 -60 3 -22 15 -105 26 -185 11
-80 22 -156 25 -170 2 -14 9 -63 15 -110 17 -129 20 -143 36 -167 20 -32 54
-37 142 -24 120 19 124 20 177 26 28 3 75 10 105 15 30 5 78 12 105 15 28 4
61 8 74 10 13 2 45 7 70 11 25 3 57 8 71 10 14 2 48 7 75 10 28 4 62 13 77 20
45 23 45 24 8 274 -11 74 -22 153 -24 175 -3 22 -8 58 -12 80 -3 22 -7 51 -9
65 -18 124 -27 189 -31 210 -2 14 -7 50 -10 80 -3 30 -7 57 -9 60 -2 3 -6 34
-10 70 -3 36 -8 72 -10 80 -3 8 -7 33 -9 55 -3 22 -10 74 -17 115 -6 41 -12
86 -14 100 -1 14 -5 43 -9 65 -11 75 -46 330 -52 370 -2 22 -7 51 -9 65 -2 14
-7 45 -10 70 -4 25 -8 56 -10 70 -2 14 -9 61 -15 105 -6 44 -13 91 -15 105 -2
14 -7 45 -10 69 -3 23 -7 55 -10 70 -2 14 -16 109 -30 211 -24 170 -29 208
-40 280 -2 14 -9 61 -15 105 -6 44 -13 90 -15 101 -2 12 -7 48 -10 80 -4 33
-9 68 -11 79 -2 11 -6 40 -9 65 -3 25 -8 56 -10 70 -3 14 -7 48 -11 75 -3 28
-8 59 -10 70 -2 11 -7 40 -10 65 -3 25 -7 56 -10 70 -2 14 -6 50 -9 80 -11 98
-8 95 -100 79z"/>
<path d="M687 4145 c-1 -5 -2 -786 -2 -1734 l1 -1724 28 -23 27 -24 424 0 424
0 28 24 28 24 0 1731 c0 1534 -2 1731 -15 1732 -8 1 -223 2 -477 3 -301 1
-464 -2 -466 -9z"/>
<path d="M1971 3830 c-4 -3 -7 -711 -6 -1573 l0 -1569 28 -24 28 -24 585 0
585 0 24 25 c14 13 25 37 26 52 0 15 1 720 2 1566 1 1017 -1 1541 -8 1545 -12
8 -1253 9 -1264 2z"/>
<path d="M4357 974 c-1 -1 -101 -5 -222 -9 -121 -4 -249 -9 -285 -10 -36 -2
-95 -3 -131 -4 l-66 -1 3 -92 c6 -169 10 -200 30 -216 18 -13 212 -12 549 3
44 2 133 4 198 6 127 3 174 16 182 53 4 17 3 101 -4 254 -1 23 -2 23 -127 20
-69 -2 -126 -4 -127 -4z"/>
</g>
</svg>
